<svg width="364" height="113" viewBox="0 0 364 113" fill="none" xmlns="http://www.w3.org/2000/svg">
<path d="M68.97 36.39C68.91 36.99 68.85 37.62 68.79 38.28C68.73 38.88 68.55 39.42 68.25 39.9C67.83 40.62 67.26 41.16 66.54 41.52C65.82 41.88 65.04 42.12 64.2 42.24C63.06 42.36 61.86 42.42 60.6 42.42C59.4 42.36 58.2 42.36 57 42.42C56.52 42.48 55.98 42.54 55.38 42.6C54.78 42.66 54.24 42.81 53.76 43.05C53.64 43.11 53.49 43.23 53.31 43.41C53.19 43.59 53.07 43.74 52.95 43.86C52.89 43.92 52.8 44.01 52.68 44.13C52.56 44.19 52.47 44.28 52.41 44.4C52.29 44.64 52.23 44.85 52.23 45.03C52.11 45.45 51.99 45.84 51.87 46.2C51.81 46.56 51.78 46.95 51.78 47.37C51.72 48.39 51.69 49.44 51.69 50.52C51.69 51.6 51.69 52.65 51.69 53.67V75.45C51.69 76.41 51.69 77.4 51.69 78.42C51.69 79.44 51.63 80.46 51.51 81.48C51.45 81.9 51.36 82.38 51.24 82.92C51.12 83.46 50.91 83.94 50.61 84.36L49.98 84.72C49.86 84.84 49.71 84.96 49.53 85.08C49.35 85.26 49.17 85.41 48.99 85.53L47.82 85.8C46.8 86.04 45.72 86.13 44.58 86.07C43.5 86.07 42.42 86.07 41.34 86.07C40.02 86.07 38.58 86.07 37.02 86.07C35.52 86.07 34.08 86.01 32.7 85.89C32.04 85.89 31.32 85.74 30.54 85.44C30.48 85.44 30.36 85.41 30.18 85.35C30 85.35 29.88 85.32 29.82 85.26L29.91 84.36C29.97 84.3 30.09 84.27 30.27 84.27C30.45 84.27 30.57 84.24 30.63 84.18C31.29 84.06 31.89 84 32.43 84C33.03 84 33.63 84 34.23 84C35.13 84 36.24 83.94 37.56 83.82C38.94 83.7 40.23 83.43 41.43 83.01C42.69 82.59 43.59 81.93 44.13 81.03C44.37 80.55 44.52 80.04 44.58 79.5C44.64 78.96 44.67 78.45 44.67 77.97C44.79 76.95 44.82 75.93 44.76 74.91C44.76 73.83 44.76 72.78 44.76 71.76V52.05C44.76 51.03 44.76 50.01 44.76 48.99C44.76 47.91 44.79 46.86 44.85 45.84C44.85 45.36 44.88 44.85 44.94 44.31C45 43.71 45.15 43.2 45.39 42.78C45.81 41.94 46.41 41.37 47.19 41.07C48.03 40.71 48.87 40.5 49.71 40.44C50.91 40.32 52.08 40.29 53.22 40.35C54.42 40.35 55.59 40.32 56.73 40.26C57.21 40.2 57.72 40.11 58.26 39.99C58.8 39.87 59.28 39.69 59.7 39.45C60.36 39.03 60.87 38.46 61.23 37.74C61.59 37.02 61.83 36.27 61.95 35.49C62.07 34.41 62.13 33.33 62.13 32.25C62.13 31.17 62.13 30.09 62.13 29.01C62.13 28.17 62.1 27.36 62.04 26.58C61.98 25.74 61.77 24.93 61.41 24.15C61.35 24.03 61.29 23.88 61.23 23.7C61.23 23.46 61.17 23.31 61.05 23.25C60.63 22.59 60.03 22.11 59.25 21.81C58.53 21.45 57.78 21.24 57 21.18C55.68 21 54.24 20.94 52.68 21C51.18 21 49.74 21 48.36 21H12.81C12.03 21 11.22 21 10.38 21C9.54 21 8.76 21.15 8.04 21.45C7.86 21.51 7.68 21.6 7.5 21.72C7.38 21.78 7.26 21.87 7.14 21.99C6.78 22.11 6.51 22.26 6.33 22.44C6.27 22.5 6.18 22.62 6.06 22.8C6 22.98 5.91 23.13 5.79 23.25C5.01 24.27 4.59 25.47 4.53 26.85C4.53 28.17 4.53 29.43 4.53 30.63V33.06C4.53 33.66 4.53 34.23 4.53 34.77C4.53 35.31 4.47 35.85 4.35 36.39C4.35 36.45 4.32 36.6 4.26 36.84C4.26 37.08 4.23 37.26 4.17 37.38C4.11 37.44 3.99 37.47 3.81 37.47C3.63 37.47 3.51 37.47 3.45 37.47C3.39 37.47 3.27 37.5 3.09 37.56C2.91 37.62 2.76 37.62 2.64 37.56C2.58 37.5 2.49 37.35 2.37 37.11C2.25 36.87 2.16 36.72 2.1 36.66L1.47 35.85C1.23 35.13 1.11 34.5 1.11 33.96C0.99 33.12 0.93 32.28 0.93 31.44C0.93 30.54 0.93 29.67 0.93 28.83C0.93 27.93 0.96 26.85 1.02 25.59C1.02 24.27 1.2 22.98 1.56 21.72C1.86 20.4 2.43 19.29 3.27 18.39C3.39 18.27 3.51 18.12 3.63 17.94C3.75 17.76 3.9 17.61 4.08 17.49C5.1 16.53 6.27 15.99 7.59 15.87C8.91 15.75 10.23 15.69 11.55 15.69H49.71C50.85 15.69 51.96 15.69 53.04 15.69C54.18 15.63 55.32 15.66 56.46 15.78C57.24 15.84 58.02 15.96 58.8 16.14C59.64 16.26 60.39 16.53 61.05 16.95C61.95 17.43 62.64 18.09 63.12 18.93C63.66 19.71 64.23 20.49 64.83 21.27C65.49 22.05 66.15 22.8 66.81 23.52C67.53 24.18 68.07 24.99 68.43 25.95C68.73 26.61 68.91 27.36 68.97 28.2C69.03 28.98 69.06 29.73 69.06 30.45L68.97 36.39ZM11.73 40.35C12.81 40.35 13.89 40.35 14.97 40.35C16.05 40.29 17.13 40.32 18.21 40.44C18.39 40.5 18.57 40.53 18.75 40.53C18.93 40.47 19.08 40.47 19.2 40.53L20.37 41.16C20.49 41.22 20.61 41.28 20.73 41.34C20.85 41.4 20.94 41.46 21 41.52C21.12 41.64 21.21 41.82 21.27 42.06C21.39 42.3 21.48 42.51 21.54 42.69C21.9 43.53 22.05 44.49 21.99 45.57C21.93 46.65 21.9 47.67 21.9 48.63V67.62C21.9 68.52 21.9 69.63 21.9 70.95C21.9 72.21 21.9 73.5 21.9 74.82C21.96 76.14 21.96 77.25 21.9 78.15C21.9 78.39 21.9 78.69 21.9 79.05C21.96 79.41 21.93 79.71 21.81 79.95C21.75 80.07 21.63 80.22 21.45 80.4C21.33 80.58 21.21 80.73 21.09 80.85C21.03 80.85 20.94 80.94 20.82 81.12C20.76 81.3 20.7 81.39 20.64 81.39C20.58 81.39 20.52 81.36 20.46 81.3C20.4 81.18 20.31 81.09 20.19 81.03C20.13 80.91 20.01 80.79 19.83 80.67C19.71 80.55 19.59 80.43 19.47 80.31C19.23 80.13 19.08 79.92 19.02 79.68C18.96 79.44 18.87 79.17 18.75 78.87C18.51 78.21 18.36 77.52 18.3 76.8C18.3 76.02 18.3 75.27 18.3 74.55C18.3 74.01 18.3 72.96 18.3 71.4C18.3 69.84 18.3 68.04 18.3 66C18.3 63.96 18.3 61.92 18.3 59.88C18.3 57.84 18.3 56.04 18.3 54.48C18.3 52.92 18.3 51.87 18.3 51.33C18.3 50.55 18.3 49.8 18.3 49.08C18.3 48.3 18.24 47.52 18.12 46.74C18.12 46.56 18.12 46.38 18.12 46.2C18.12 45.96 18.06 45.75 17.94 45.57C17.88 45.39 17.79 45.24 17.67 45.12C17.61 44.94 17.55 44.76 17.49 44.58L16.95 43.68C16.89 43.56 16.74 43.47 16.5 43.41C16.32 43.29 16.17 43.2 16.05 43.14L15.24 42.6C14.64 42.3 13.98 42.12 13.26 42.06C12.6 42 11.97 41.85 11.37 41.61C11.13 41.49 10.92 41.37 10.74 41.25C10.56 41.13 10.38 41.01 10.2 40.89C10.14 40.83 10.05 40.8 9.93 40.8C9.81 40.74 9.75 40.68 9.75 40.62C9.75 40.5 9.81 40.47 9.93 40.53C10.11 40.59 10.23 40.59 10.29 40.53C10.47 40.47 10.68 40.44 10.92 40.44C11.16 40.38 11.43 40.35 11.73 40.35Z" fill="#D3331D"/>
<path d="M87.13 90.21C86.17 90.51 85.18 90.72 84.16 90.84C83.14 90.96 82.12 91.02 81.1 91.02C80.44 90.96 79.48 90.72 78.22 90.3C76.96 89.88 75.61 89.31 74.17 88.59C72.73 87.93 71.38 87.21 70.12 86.43C68.86 85.71 67.9 85.02 67.24 84.36C66.28 83.16 65.56 81.81 65.08 80.31C64.66 78.75 64.3 77.31 64 75.99C63.64 74.43 63.46 72.81 63.46 71.13C63.46 69.75 63.7 68.25 64.18 66.63C64.66 64.95 65.17 63.45 65.71 62.13C66.01 61.47 66.28 60.78 66.52 60.06C66.76 59.34 66.94 58.59 67.06 57.81C67.36 56.49 67.39 55.2 67.15 53.94C66.97 52.68 66.91 51.39 66.97 50.07C67.03 49.23 67.15 48.42 67.33 47.64C67.57 46.8 67.81 45.99 68.05 45.21C68.53 43.83 69.1 42.51 69.76 41.25C70.48 39.93 71.41 38.76 72.55 37.74C73.21 37.08 74.17 36.45 75.43 35.85C76.69 35.19 78.04 34.59 79.48 34.05C80.92 33.51 82.27 33.06 83.53 32.7C84.79 32.28 85.75 31.98 86.41 31.8C87.07 31.62 88.27 31.5 90.01 31.44C91.81 31.38 93.76 31.44 95.86 31.62C98.02 31.74 99.97 31.98 101.71 32.34C103.51 32.7 104.74 33.21 105.4 33.87C106.54 34.41 107.62 35.04 108.64 35.76C109.72 36.42 110.74 37.14 111.7 37.92C112.84 38.76 113.92 39.69 114.94 40.71C116.02 41.73 116.92 42.87 117.64 44.13C118.42 45.03 118.99 46.35 119.35 48.09C119.71 49.77 119.95 51.48 120.07 53.22C120.25 54.9 120.34 56.19 120.34 57.09V74.28C120.34 75.12 120.31 75.99 120.25 76.89C120.25 77.79 120.1 78.66 119.8 79.5C119.5 80.4 119.02 81.24 118.36 82.02C117.76 82.74 117.22 83.52 116.74 84.36C116.26 85.14 115.81 85.98 115.39 86.88C114.97 87.84 114.34 88.59 113.5 89.13C113.26 89.31 112.96 89.46 112.6 89.58C112.24 89.7 111.91 89.82 111.61 89.94C110.83 90.18 109.96 90.3 109 90.3C108.04 90.3 107.14 90.3 106.3 90.3C104.98 90.3 103.63 90.3 102.25 90.3C100.87 90.36 99.52 90.21 98.2 89.85C97.3 89.55 96.4 89.16 95.5 88.68C94.66 88.26 93.73 88.11 92.71 88.23C92.47 88.23 92.26 88.26 92.08 88.32C91.9 88.38 91.72 88.47 91.54 88.59C90.76 88.83 90.01 89.1 89.29 89.4C88.63 89.7 87.91 89.97 87.13 90.21ZM114.85 47.73C114.43 46.89 113.98 46.08 113.5 45.3C113.02 44.46 112.45 43.68 111.79 42.96C110.53 41.58 108.94 40.44 107.02 39.54C105.16 38.64 103.54 37.98 102.16 37.56C101.62 37.2 100.66 36.93 99.28 36.75C97.9 36.51 96.31 36.39 94.51 36.39C92.77 36.33 91 36.36 89.2 36.48C87.46 36.54 85.9 36.69 84.52 36.93C83.14 37.17 82.18 37.47 81.64 37.83C80.32 38.37 78.64 39.21 76.6 40.35C74.56 41.43 72.91 42.66 71.65 44.04C71.23 44.52 70.84 45.06 70.48 45.66C70.12 46.2 69.82 46.8 69.58 47.46C69.58 47.58 69.55 47.73 69.49 47.91C69.43 48.09 69.37 48.24 69.31 48.36C69.31 48.6 69.34 48.84 69.4 49.08C69.52 49.32 69.61 49.53 69.67 49.71C69.67 49.77 69.67 49.86 69.67 49.98C69.73 50.1 69.88 50.28 70.12 50.52C70.3 50.64 70.48 50.79 70.66 50.97C70.9 51.15 71.11 51.3 71.29 51.42C71.65 51.54 72.07 51.63 72.55 51.69C73.09 51.69 73.54 51.72 73.9 51.78H79.57C80.47 51.78 81.37 51.78 82.27 51.78C83.23 51.78 84.16 51.72 85.06 51.6C85.66 51.48 86.23 51.33 86.77 51.15C87.37 50.97 87.94 50.76 88.48 50.52C88.78 50.4 89.11 50.25 89.47 50.07C89.89 49.89 90.25 49.77 90.55 49.71C90.67 49.65 90.82 49.65 91 49.71C91.18 49.71 91.36 49.71 91.54 49.71C91.66 49.71 91.81 49.71 91.99 49.71C92.23 49.65 92.41 49.65 92.53 49.71C92.83 49.83 93.04 50.04 93.16 50.34C93.28 50.4 93.43 50.52 93.61 50.7C93.79 50.82 93.88 50.94 93.88 51.06C93.88 51.12 93.85 51.24 93.79 51.42C93.73 51.54 93.67 51.66 93.61 51.78C93.55 51.9 93.49 52.11 93.43 52.41C93.43 52.65 93.37 52.83 93.25 52.95C93.13 53.13 92.92 53.28 92.62 53.4C92.32 53.46 92.08 53.55 91.9 53.67C91.42 53.91 90.88 54.09 90.28 54.21C89.74 54.27 89.23 54.36 88.75 54.48C87.85 54.66 86.95 54.84 86.05 55.02C85.15 55.14 84.28 55.29 83.44 55.47C82.78 55.83 81.61 56.52 79.93 57.54C78.25 58.56 76.45 59.73 74.53 61.05C72.61 62.31 70.84 63.54 69.22 64.74C67.66 65.88 66.64 66.78 66.16 67.44C65.98 67.98 65.86 68.55 65.8 69.15C65.8 69.69 65.77 70.26 65.71 70.86C65.71 72.3 66.01 73.77 66.61 75.27C67.15 75.81 68.11 76.53 69.49 77.43C70.87 78.27 72.43 79.17 74.17 80.13C75.97 81.03 77.74 81.87 79.48 82.65C81.22 83.43 82.78 83.97 84.16 84.27C85.54 84.63 86.5 84.63 87.04 84.27C87.82 84.09 88.57 83.88 89.29 83.64C90.07 83.34 90.82 82.98 91.54 82.56C91.9 82.32 92.26 82.14 92.62 82.02C92.98 81.84 93.37 81.69 93.79 81.57C93.91 81.51 94.03 81.45 94.15 81.39C94.33 81.33 94.45 81.3 94.51 81.3C94.63 81.3 94.75 81.36 94.87 81.48C94.99 81.54 95.08 81.57 95.14 81.57C95.38 81.63 95.59 81.72 95.77 81.84C95.95 81.9 96.13 81.99 96.31 82.11C96.61 82.23 96.88 82.41 97.12 82.65C97.36 82.89 97.6 83.1 97.84 83.28C98.14 83.34 98.44 83.43 98.74 83.55C99.1 83.67 99.4 83.76 99.64 83.82C100.18 83.88 100.72 83.94 101.26 84C101.8 84 102.31 84 102.79 84H107.83C108.67 84 109.57 84 110.53 84C111.49 84 112.36 83.85 113.14 83.55C113.68 83.43 114.25 83.13 114.85 82.65C115.03 82.47 115.18 82.2 115.3 81.84C115.96 80.82 116.29 79.71 116.29 78.51C116.35 77.25 116.38 76.05 116.38 74.91V60.51C116.38 59.61 116.35 58.35 116.29 56.73C116.29 55.05 116.17 53.37 115.93 51.69C115.75 50.01 115.39 48.69 114.85 47.73ZM89.29 70.68L88.3 70.14C88.24 70.08 88.15 70.05 88.03 70.05C87.97 69.99 87.91 69.93 87.85 69.87C87.79 69.75 87.76 69.6 87.76 69.42C87.76 69.18 87.73 69 87.67 68.88L87.58 68.07C87.64 67.95 87.73 67.83 87.85 67.71C87.97 67.59 88.06 67.5 88.12 67.44C88.36 67.08 88.57 66.81 88.75 66.63C89.17 66.33 89.62 66.12 90.1 66C90.64 65.88 91.12 65.82 91.54 65.82C91.66 65.82 91.81 65.79 91.99 65.73C92.23 65.67 92.38 65.67 92.44 65.73C92.62 65.79 92.8 65.91 92.98 66.09C93.16 66.27 93.31 66.42 93.43 66.54C93.49 66.6 93.55 66.66 93.61 66.72C93.67 66.72 93.73 66.78 93.79 66.9C93.85 67.02 93.82 67.2 93.7 67.44C93.7 67.56 93.7 67.77 93.7 68.07C93.76 68.31 93.73 68.52 93.61 68.7C93.55 68.76 93.46 68.88 93.34 69.06C93.22 69.18 93.1 69.3 92.98 69.42L92.35 70.14C92.17 70.2 91.96 70.26 91.72 70.32C91.54 70.38 91.36 70.47 91.18 70.59C91.06 70.65 90.94 70.71 90.82 70.77C90.7 70.83 90.58 70.86 90.46 70.86C90.22 70.92 89.83 70.86 89.29 70.68Z" fill="#4DB8D8"/>
<path d="M177.48 69.6C177.42 70.92 177.27 72.48 177.03 74.28C176.79 76.08 176.22 77.67 175.32 79.05C174.42 79.95 173.16 80.94 171.54 82.02C169.92 83.04 168.3 83.97 166.68 84.81C165.06 85.65 163.8 86.25 162.9 86.61C162.36 87.03 161.19 87.3 159.39 87.42C157.65 87.6 155.58 87.66 153.18 87.6C150.84 87.6 148.47 87.48 146.07 87.24C143.67 87 141.57 86.67 139.77 86.25C138.03 85.89 136.89 85.44 136.35 84.9C135.03 84.3 133.38 83.64 131.4 82.92C129.48 82.14 127.83 81.18 126.45 80.04C125.67 79.32 124.92 78.48 124.2 77.52C123.48 76.5 123 75.45 122.76 74.37C122.46 73.29 122.55 72.3 123.03 71.4C123.33 70.74 123.81 70.14 124.47 69.6C125.07 69 125.61 68.43 126.09 67.89C126.21 67.71 126.36 67.56 126.54 67.44C126.72 67.26 126.87 67.11 126.99 66.99C127.11 66.81 127.23 66.48 127.35 66C127.47 65.88 127.56 65.73 127.62 65.55C127.74 65.37 127.8 65.22 127.8 65.1C127.86 64.98 127.86 64.83 127.8 64.65C127.74 64.41 127.68 64.23 127.62 64.11C127.62 63.99 127.62 63.84 127.62 63.66C127.62 63.48 127.56 63.33 127.44 63.21C127.38 63.03 127.23 62.76 126.99 62.4C126.69 61.92 126.36 61.44 126 60.96C125.64 60.48 125.31 60 125.01 59.52C124.23 58.14 123.66 56.61 123.3 54.93C122.94 53.25 122.88 51.75 123.12 50.43C123.36 49.53 123.9 48.42 124.74 47.1C125.52 45.72 126.42 44.37 127.44 43.05C128.52 41.73 129.51 40.62 130.41 39.72C131.49 38.7 132.57 37.71 133.65 36.75C134.79 35.73 136.02 34.83 137.34 34.05C137.88 33.51 138.96 33.03 140.58 32.61C142.26 32.13 144.18 31.74 146.34 31.44C148.56 31.14 150.75 30.93 152.91 30.81C155.07 30.69 156.96 30.69 158.58 30.81C160.26 30.93 161.37 31.2 161.91 31.62C163.29 32.04 164.82 32.64 166.5 33.42C168.18 34.14 169.68 35.04 171 36.12C171.66 36.66 172.26 37.23 172.8 37.83C173.4 38.43 173.91 39.09 174.33 39.81C174.75 40.71 175.02 41.64 175.14 42.6C175.2 42.72 175.26 42.9 175.32 43.14C175.38 43.32 175.38 43.47 175.32 43.59C175.26 43.71 175.14 43.83 174.96 43.95C174.84 44.07 174.72 44.19 174.6 44.31C174.54 44.37 174.45 44.49 174.33 44.67C174.21 44.85 174.09 44.94 173.97 44.94C173.91 45 173.85 45 173.79 44.94C173.73 44.82 173.64 44.73 173.52 44.67C173.34 44.55 173.16 44.43 172.98 44.31C172.8 44.19 172.65 44.07 172.53 43.95C172.23 43.71 171.93 43.47 171.63 43.23C171.33 42.93 171.03 42.72 170.73 42.6C170.55 42.48 170.34 42.42 170.1 42.42C169.86 42.36 169.65 42.3 169.47 42.24C169.11 42.12 168.84 42.06 168.66 42.06C168.42 42.06 168.18 42.12 167.94 42.24C167.52 42.3 167.13 42.42 166.77 42.6C166.41 42.72 166.05 42.87 165.69 43.05C164.73 43.65 163.74 44.31 162.72 45.03C161.76 45.69 160.86 46.38 160.02 47.1C159.3 47.64 158.73 48.24 158.31 48.9C158.25 48.96 158.16 49.08 158.04 49.26C157.92 49.38 157.86 49.47 157.86 49.53C157.86 49.77 157.98 50.01 158.22 50.25C158.28 50.31 158.34 50.43 158.4 50.61C158.46 50.73 158.52 50.85 158.58 50.97C158.64 51.03 158.76 51.06 158.94 51.06C159.12 51.06 159.24 51.09 159.3 51.15C159.72 51.21 160.11 51.27 160.47 51.33C160.89 51.39 161.31 51.45 161.73 51.51C164.67 51.63 167.58 51.63 170.46 51.51C170.94 51.51 171.42 51.51 171.9 51.51C172.38 51.45 172.86 51.48 173.34 51.6C173.46 51.66 173.64 51.69 173.88 51.69C174.12 51.69 174.27 51.75 174.33 51.87C174.45 51.93 174.54 52.08 174.6 52.32C174.66 52.5 174.72 52.65 174.78 52.77C175.02 53.31 175.17 53.88 175.23 54.48C175.35 55.02 175.5 55.56 175.68 56.1C175.98 56.88 176.28 57.69 176.58 58.53C176.88 59.31 177.15 60.12 177.39 60.96C177.69 62.28 177.81 63.69 177.75 65.19C177.69 66.63 177.6 68.1 177.48 69.6ZM173.52 60.96C173.1 60.48 172.65 60.03 172.17 59.61C171.69 59.19 171.18 58.8 170.64 58.44C169.74 57.66 168.57 57.03 167.13 56.55C165.75 56.01 164.34 55.56 162.9 55.2C161.46 54.84 160.29 54.54 159.39 54.3C158.61 54.18 157.83 54.06 157.05 53.94C156.33 53.76 155.61 53.55 154.89 53.31C154.59 53.19 154.29 53.07 153.99 52.95C153.69 52.83 153.39 52.68 153.09 52.5C152.97 52.38 152.76 52.23 152.46 52.05C152.22 51.87 152.04 51.69 151.92 51.51L152.01 50.79C152.01 50.67 152.01 50.49 152.01 50.25C152.01 50.01 152.04 49.86 152.1 49.8C152.16 49.68 152.25 49.59 152.37 49.53C152.49 49.47 152.58 49.41 152.64 49.35C152.94 49.11 153.21 48.9 153.45 48.72C153.69 48.48 153.96 48.27 154.26 48.09C155.28 47.43 156.27 46.68 157.23 45.84C158.25 45 159.21 44.13 160.11 43.23C160.71 42.63 161.22 42 161.64 41.34C161.94 41.04 162.09 40.83 162.09 40.71C162.15 40.59 162.15 40.47 162.09 40.35C162.09 40.17 162.09 40.05 162.09 39.99C162.09 39.87 162.09 39.69 162.09 39.45C162.15 39.21 162.15 39.03 162.09 38.91C162.03 38.79 161.91 38.67 161.73 38.55C161.61 38.43 161.49 38.34 161.37 38.28C160.83 37.8 160.2 37.47 159.48 37.29C158.76 37.11 158.07 36.96 157.41 36.84C156.75 36.6 155.64 36.45 154.08 36.39C152.58 36.33 150.93 36.36 149.13 36.48C147.33 36.54 145.65 36.72 144.09 37.02C142.59 37.26 141.51 37.62 140.85 38.1C140.19 38.58 139.23 39.39 137.97 40.53C136.77 41.61 135.51 42.81 134.19 44.13C132.93 45.45 131.82 46.71 130.86 47.91C129.9 49.11 129.33 50.04 129.15 50.7C129.09 52.44 129.33 54.21 129.87 56.01C130.11 56.67 130.41 57.36 130.77 58.08C131.13 58.74 131.52 59.34 131.94 59.88C132.96 61.14 134.19 62.16 135.63 62.94C137.07 63.72 138.45 64.41 139.77 65.01C140.85 65.43 141.93 65.79 143.01 66.09C144.15 66.33 145.29 66.6 146.43 66.9C147.03 67.02 147.6 67.14 148.14 67.26C148.74 67.38 149.31 67.56 149.85 67.8C150.15 67.86 150.42 67.95 150.66 68.07C150.96 68.19 151.23 68.31 151.47 68.43C151.59 68.55 151.71 68.73 151.83 68.97C152.01 69.15 152.13 69.3 152.19 69.42C152.25 69.48 152.34 69.57 152.46 69.69C152.58 69.81 152.64 69.9 152.64 69.96C152.64 70.02 152.55 70.17 152.37 70.41C152.19 70.59 152.01 70.83 151.83 71.13C151.71 71.19 151.5 71.22 151.2 71.22C150.9 71.16 150.69 71.13 150.57 71.13C149.97 71.13 149.4 71.04 148.86 70.86C148.32 70.68 147.78 70.53 147.24 70.41C145.92 69.93 144.36 69.69 142.56 69.69C140.76 69.63 139.17 69.6 137.79 69.6C136.89 69.6 135.99 69.6 135.09 69.6C134.19 69.54 133.32 69.6 132.48 69.78C132.24 69.84 131.91 69.93 131.49 70.05C131.13 70.11 130.83 70.2 130.59 70.32C129.45 71.04 128.88 72.06 128.88 73.38C128.88 73.56 128.94 73.83 129.06 74.19C129.18 74.67 129.33 75.15 129.51 75.63C129.75 76.05 130.02 76.47 130.32 76.89C131.46 78.21 132.99 79.41 134.91 80.49C136.83 81.57 138.45 82.41 139.77 83.01C140.43 83.49 141.6 83.88 143.28 84.18C144.96 84.48 146.79 84.66 148.77 84.72C150.75 84.84 152.58 84.87 154.26 84.81C155.94 84.81 157.11 84.72 157.77 84.54C158.67 84.42 159.81 84.24 161.19 84C162.57 83.76 163.95 83.46 165.33 83.1C166.71 82.68 167.85 82.2 168.75 81.66C169.95 81.06 171.06 80.37 172.08 79.59C173.1 78.75 173.97 77.79 174.69 76.71C175.47 75.81 176.04 74.64 176.4 73.2C176.76 71.76 176.94 70.35 176.94 68.97C176.94 67.53 176.73 66.36 176.31 65.46C176.07 64.62 175.71 63.84 175.23 63.12C174.75 62.4 174.18 61.68 173.52 60.96Z" fill="#CBCA0D"/>
<path d="M238.74 88.14H230.82C229.68 88.14 228.48 88.11 227.22 88.05C226.02 87.99 224.85 87.78 223.71 87.42C223.11 87.24 222.51 87 221.91 86.7C221.31 86.4 220.71 86.1 220.11 85.8C219.87 85.68 219.6 85.5 219.3 85.26C219 85.02 218.7 84.87 218.4 84.81C218.22 84.75 218.01 84.72 217.77 84.72C217.53 84.72 217.32 84.72 217.14 84.72C217.02 84.72 216.87 84.69 216.69 84.63C216.57 84.63 216.45 84.66 216.33 84.72C216.15 84.78 215.94 84.87 215.7 84.99C215.52 85.11 215.37 85.23 215.25 85.35C214.59 85.71 213.96 86.1 213.36 86.52C212.76 86.94 212.1 87.27 211.38 87.51C210.3 87.87 209.19 88.05 208.05 88.05C206.91 88.11 205.8 88.14 204.72 88.14C203.82 88.14 202.62 88.14 201.12 88.14C199.68 88.2 198.21 88.17 196.71 88.05C195.27 87.93 194.1 87.66 193.2 87.24C192.42 87 191.67 86.67 190.95 86.25C190.23 85.83 189.6 85.32 189.06 84.72C188.28 83.82 187.8 82.77 187.62 81.57C187.44 80.31 187.32 79.11 187.26 77.97C187.26 77.07 187.26 75.9 187.26 74.46C187.26 73.02 187.26 71.61 187.26 70.23C187.26 68.79 187.26 67.62 187.26 66.72V29.01C187.26 28.17 187.29 27.3 187.35 26.4C187.41 25.44 187.62 24.57 187.98 23.79C188.16 23.31 188.43 22.86 188.79 22.44C189.15 22.02 189.51 21.63 189.87 21.27C190.65 20.55 191.52 19.86 192.48 19.2C193.44 18.54 194.43 18.09 195.45 17.85C196.11 17.73 196.77 17.64 197.43 17.58C198.09 17.52 198.72 17.49 199.32 17.49H206.25C206.85 17.49 207.42 17.52 207.96 17.58C208.56 17.64 209.16 17.73 209.76 17.85L210.75 18.12C211.23 18.36 211.65 18.72 212.01 19.2C212.43 19.62 212.79 20.07 213.09 20.55C213.63 21.45 214.14 22.41 214.62 23.43C215.16 24.39 215.55 25.41 215.79 26.49C216.03 27.81 216.12 29.25 216.06 30.81C216 32.31 216 33.75 216.06 35.13C216.06 35.55 216.09 35.91 216.15 36.21C216.27 36.51 216.39 36.87 216.51 37.29C216.51 37.59 216.6 37.83 216.78 38.01C216.9 38.07 216.99 38.1 217.05 38.1C217.17 38.04 217.26 38.01 217.32 38.01C217.56 37.95 217.8 37.92 218.04 37.92C218.34 37.92 218.61 37.86 218.85 37.74C219.63 37.26 220.41 36.75 221.19 36.21C222.03 35.67 222.9 35.28 223.8 35.04C224.76 34.74 225.75 34.59 226.77 34.59C227.79 34.59 228.78 34.59 229.74 34.59C231.06 34.59 232.38 34.59 233.7 34.59C235.02 34.53 236.34 34.53 237.66 34.59C238.5 34.65 239.37 34.74 240.27 34.86C241.17 34.98 241.92 35.37 242.52 36.03C242.64 36.09 242.76 36.21 242.88 36.39C243 36.57 243.09 36.72 243.15 36.84C243.39 37.2 243.6 37.56 243.78 37.92C244.02 38.28 244.26 38.67 244.5 39.09C244.62 39.39 244.77 39.72 244.95 40.08C245.19 40.44 245.37 40.77 245.49 41.07C245.73 41.79 245.85 42.42 245.85 42.96C245.85 43.14 245.82 43.32 245.76 43.5C245.7 43.68 245.64 43.86 245.58 44.04C245.34 44.7 245.01 45.33 244.59 45.93C244.23 46.53 243.84 47.13 243.42 47.73C242.58 49.05 241.68 50.34 240.72 51.6C239.82 52.86 238.95 54.12 238.11 55.38C237.69 55.98 237.3 56.58 236.94 57.18C236.58 57.78 236.31 58.44 236.13 59.16C236.07 59.28 236.01 59.43 235.95 59.61C235.89 59.79 235.83 59.97 235.77 60.15C235.77 60.45 235.83 60.78 235.95 61.14C236.07 62.16 236.4 63.15 236.94 64.11C237.48 65.01 238.02 65.88 238.56 66.72C239.4 67.62 240.24 68.85 241.08 70.41C241.98 71.97 242.82 73.53 243.6 75.09C244.44 76.59 245.22 77.79 245.94 78.69C246.24 79.23 246.51 79.77 246.75 80.31C246.99 80.79 247.2 81.33 247.38 81.93C247.62 82.35 247.77 82.74 247.83 83.1C247.83 83.28 247.8 83.46 247.74 83.64C247.74 83.82 247.74 83.97 247.74 84.09C247.68 84.27 247.65 84.45 247.65 84.63C247.71 84.87 247.68 85.05 247.56 85.17C247.5 85.23 247.41 85.32 247.29 85.44C247.17 85.62 247.05 85.77 246.93 85.89C246.87 85.95 246.78 86.04 246.66 86.16C246.54 86.34 246.42 86.49 246.3 86.61C245.88 86.97 245.37 87.24 244.77 87.42C244.17 87.6 243.57 87.75 242.97 87.87C242.37 87.99 241.71 88.05 240.99 88.05C240.27 88.11 239.52 88.14 238.74 88.14ZM190.05 31.35V75.54C190.05 76.38 190.05 77.28 190.05 78.24C190.11 79.2 190.32 80.1 190.68 80.94C191.28 82.26 192.24 83.16 193.56 83.64C193.98 83.76 194.4 83.85 194.82 83.91C195.3 83.91 195.75 83.91 196.17 83.91C196.95 83.97 197.7 84 198.42 84C199.2 84 199.95 84 200.67 84H203.82C204.48 83.94 205.14 83.88 205.8 83.82C206.52 83.76 207.18 83.58 207.78 83.28C207.9 83.22 208.05 83.16 208.23 83.1C208.47 83.04 208.62 82.98 208.68 82.92C208.8 82.8 208.92 82.68 209.04 82.56C209.16 82.38 209.25 82.26 209.31 82.2C209.43 82.08 209.55 81.96 209.67 81.84C209.79 81.66 209.88 81.54 209.94 81.48C210.06 81.3 210.12 81.12 210.12 80.94C210.18 80.7 210.24 80.49 210.3 80.31C210.54 79.47 210.66 78.63 210.66 77.79C210.66 76.89 210.66 76.05 210.66 75.27C210.66 74.37 210.75 73.47 210.93 72.57C210.93 72.51 210.93 72.39 210.93 72.21C210.93 72.03 210.96 71.91 211.02 71.85C211.08 71.79 211.2 71.76 211.38 71.76C211.56 71.76 211.68 71.76 211.74 71.76C211.86 71.7 212.04 71.64 212.28 71.58C212.52 71.52 212.67 71.52 212.73 71.58C212.85 71.58 212.97 71.7 213.09 71.94C213.27 72.12 213.45 72.3 213.63 72.48C213.87 72.66 214.08 72.9 214.26 73.2C214.86 74.16 215.46 75.12 216.06 76.08C216.66 77.04 217.26 78 217.86 78.96C218.34 79.62 218.82 80.28 219.3 80.94C219.84 81.6 220.47 82.17 221.19 82.65C222.21 83.25 223.29 83.61 224.43 83.73C225.63 83.85 226.8 83.94 227.94 84C229.32 84 230.97 84 232.89 84C234.87 84 236.52 83.97 237.84 83.91C238.2 83.85 238.59 83.79 239.01 83.73C239.49 83.67 239.88 83.55 240.18 83.37C240.3 83.31 240.42 83.22 240.54 83.1C240.72 82.98 240.84 82.89 240.9 82.83C241.26 82.59 241.53 82.38 241.71 82.2C241.77 82.08 241.8 81.9 241.8 81.66C242.04 81.18 242.16 80.76 242.16 80.4C242.16 80.22 242.13 80.04 242.07 79.86C242.01 79.62 241.95 79.41 241.89 79.23C241.65 78.39 241.32 77.61 240.9 76.89C240.48 76.17 240.03 75.48 239.55 74.82C238.77 73.92 237.99 72.81 237.21 71.49C236.49 70.17 235.74 68.85 234.96 67.53C234.18 66.21 233.4 65.1 232.62 64.2C232.02 63.24 231.42 62.22 230.82 61.14C230.28 60 230.07 58.83 230.19 57.63C230.31 56.73 230.64 55.86 231.18 55.02C231.72 54.18 232.23 53.4 232.71 52.68L238.47 44.4C238.83 43.86 239.16 43.32 239.46 42.78C239.76 42.18 240 41.58 240.18 40.98C240.18 40.86 240.21 40.71 240.27 40.53C240.33 40.35 240.36 40.2 240.36 40.08C240.36 39.9 240.3 39.72 240.18 39.54C240.12 39.36 240.06 39.21 240 39.09C239.94 38.97 239.88 38.82 239.82 38.64C239.82 38.46 239.79 38.34 239.73 38.28C239.67 38.16 239.52 38.07 239.28 38.01C239.04 37.95 238.86 37.89 238.74 37.83C238.14 37.47 237.45 37.29 236.67 37.29C235.89 37.23 235.14 37.2 234.42 37.2H225.6C224.46 37.2 223.32 37.29 222.18 37.47C221.04 37.59 220.02 38.01 219.12 38.73C218.4 39.33 217.8 40.08 217.32 40.98C216.84 41.7 216.36 42.42 215.88 43.14C215.46 43.86 215.01 44.61 214.53 45.39C214.41 45.63 214.26 45.87 214.08 46.11C213.96 46.35 213.81 46.59 213.63 46.83L212.73 47.64C212.61 47.88 212.49 48 212.37 48C212.31 48 212.25 47.97 212.19 47.91C212.13 47.85 212.04 47.79 211.92 47.73C211.5 47.55 211.17 47.37 210.93 47.19C210.87 47.07 210.81 46.86 210.75 46.56C210.75 46.2 210.75 45.93 210.75 45.75C210.69 45.09 210.66 44.43 210.66 43.77C210.66 43.05 210.66 42.36 210.66 41.7C210.66 41.04 210.66 40.05 210.66 38.73C210.66 37.35 210.66 35.91 210.66 34.41C210.66 32.85 210.66 31.41 210.66 30.09C210.66 28.71 210.66 27.69 210.66 27.03C210.6 25.95 210.45 24.84 210.21 23.7C209.97 22.56 209.37 21.69 208.41 21.09C207.81 20.67 207.12 20.43 206.34 20.37C205.56 20.25 204.84 20.16 204.18 20.1C202.86 20.1 201.51 20.1 200.13 20.1C198.81 20.04 197.46 20.07 196.08 20.19C195.42 20.25 194.79 20.37 194.19 20.55C193.59 20.67 193.02 20.91 192.48 21.27C192.12 21.39 191.85 21.54 191.67 21.72C191.25 22.14 190.95 22.62 190.77 23.16C190.59 23.64 190.44 24.15 190.32 24.69C190.08 25.71 189.96 26.79 189.96 27.93C190.02 29.01 190.05 30.15 190.05 31.35Z" fill="#999ACF"/>
<path d="M280.42 92.79C279.1 92.79 277.48 92.79 275.56 92.79C273.64 92.85 271.99 92.79 270.61 92.61C269.59 92.49 268.6 92.28 267.64 91.98C266.68 91.68 265.69 91.41 264.67 91.17C263.53 90.87 262.3 90.6 260.98 90.36C259.66 90.12 258.64 89.49 257.92 88.47C257.5 87.99 257.23 87.42 257.11 86.76C256.99 86.1 256.9 85.47 256.84 84.87C256.78 83.97 256.75 83.07 256.75 82.17C256.75 81.21 256.75 80.28 256.75 79.38V41.4C256.75 40.5 256.75 39.18 256.75 37.44C256.69 35.7 256.69 33.96 256.75 32.22C256.81 30.48 257.02 29.16 257.38 28.26C257.56 27.54 257.77 26.76 258.01 25.92C258.25 25.08 258.61 24.36 259.09 23.76C259.87 22.8 260.83 22.23 261.97 22.05C263.11 21.81 264.25 21.66 265.39 21.6H269.44C270.82 21.6 272.2 21.63 273.58 21.69C274.96 21.69 276.28 21.96 277.54 22.5C278.68 22.92 279.73 23.55 280.69 24.39C281.71 25.17 282.7 25.89 283.66 26.55C284.56 27.15 285.49 27.72 286.45 28.26C287.41 28.8 288.19 29.55 288.79 30.51C289.27 31.17 289.57 31.92 289.69 32.76C289.81 33.54 289.9 34.32 289.96 35.1V85.23C289.96 85.95 289.93 86.64 289.87 87.3C289.81 87.96 289.69 88.62 289.51 89.28L289.24 90.18C289.18 90.24 289.09 90.33 288.97 90.45C288.91 90.57 288.82 90.69 288.7 90.81C288.58 90.93 288.43 91.08 288.25 91.26C288.13 91.5 287.98 91.68 287.8 91.8C287.62 91.86 287.41 91.92 287.17 91.98C286.99 92.04 286.81 92.13 286.63 92.25C285.67 92.61 284.65 92.79 283.57 92.79C282.49 92.79 281.44 92.79 280.42 92.79ZM263.05 35.46V81.81C263.05 82.53 263.05 83.28 263.05 84.06C263.11 84.78 263.23 85.5 263.41 86.22C263.41 86.52 263.47 86.85 263.59 87.21L264.22 88.02C264.34 88.08 264.43 88.2 264.49 88.38C264.61 88.5 264.7 88.62 264.76 88.74C265.06 88.98 265.39 89.13 265.75 89.19C266.41 89.49 267.07 89.7 267.73 89.82C268.45 89.88 269.2 89.94 269.98 90C271.18 90.06 272.41 90.06 273.67 90C274.93 90 276.16 90 277.36 90C278.02 89.94 278.62 89.88 279.16 89.82C279.76 89.76 280.36 89.61 280.96 89.37C281.08 89.25 281.23 89.16 281.41 89.1C281.65 89.04 281.83 88.98 281.95 88.92C282.43 88.56 282.82 88.08 283.12 87.48C283.48 86.82 283.72 86.19 283.84 85.59C284.02 84.75 284.08 83.88 284.02 82.98C284.02 82.08 284.02 81.21 284.02 80.37V43.2C284.02 41.82 284.02 40.14 284.02 38.16C284.08 36.12 284.08 34.44 284.02 33.12C283.96 32.4 283.9 31.71 283.84 31.05C283.78 30.39 283.6 29.76 283.3 29.16C283.24 29.04 283.18 28.89 283.12 28.71C283.06 28.47 282.97 28.32 282.85 28.26C282.79 28.14 282.7 28.05 282.58 27.99C282.52 27.87 282.43 27.78 282.31 27.72C282.13 27.6 281.95 27.45 281.77 27.27C281.65 27.09 281.5 26.97 281.32 26.91C280.9 26.67 280.42 26.52 279.88 26.46C279.34 26.34 278.83 26.25 278.35 26.19C277.03 26.07 275.41 26.01 273.49 26.01C271.57 26.01 269.92 26.07 268.54 26.19C268.12 26.25 267.67 26.31 267.19 26.37C266.71 26.43 266.29 26.55 265.93 26.73C265.75 26.79 265.6 26.88 265.48 27C265.36 27.06 265.24 27.15 265.12 27.27C265 27.33 264.85 27.42 264.67 27.54C264.55 27.66 264.43 27.78 264.31 27.9C264.19 27.96 264.1 28.08 264.04 28.26C263.98 28.44 263.92 28.59 263.86 28.71C263.32 29.67 263.05 30.75 263.05 31.95C263.05 33.09 263.05 34.26 263.05 35.46Z" fill="#67BB65"/>
<path d="M361.42 45.93C360.88 47.25 360.25 48.96 359.53 51.06C358.81 53.16 358.09 54.9 357.37 56.28C356.77 57.6 356.17 59.01 355.57 60.51C354.97 61.95 354.34 63.36 353.68 64.74C353.14 65.28 352.48 66.45 351.7 68.25C350.92 70.05 350.08 72.15 349.18 74.55C348.34 76.95 347.47 79.38 346.57 81.84C345.73 84.24 344.92 86.34 344.14 88.14C343.36 89.94 342.7 91.11 342.16 91.65C341.44 92.97 340.72 94.62 340 96.6C339.34 98.58 338.59 100.26 337.75 101.64C337.27 102.78 336.67 103.83 335.95 104.79C335.23 105.75 334.27 106.44 333.07 106.86C332.11 107.16 331.09 107.31 330.01 107.31C328.93 107.31 327.88 107.31 326.86 107.31C326.14 107.31 325.42 107.31 324.7 107.31C323.98 107.31 323.26 107.28 322.54 107.22C322.12 107.22 321.64 107.19 321.1 107.13C320.56 107.13 320.05 107.04 319.57 106.86C318.67 106.56 317.89 106.11 317.23 105.51C316.57 104.91 315.91 104.28 315.25 103.62C315.01 103.32 314.74 103.02 314.44 102.72C314.14 102.42 313.9 102.09 313.72 101.73C312.94 100.47 312.7 99.12 313 97.68C313.36 96.3 313.78 94.95 314.26 93.63C314.62 92.61 314.98 91.62 315.34 90.66C315.76 89.7 316.18 88.74 316.6 87.78C316.9 86.94 317.2 86.1 317.5 85.26C317.8 84.42 317.98 83.55 318.04 82.65C318.1 81.99 318.07 81.36 317.95 80.76C317.83 80.1 317.68 79.47 317.5 78.87C317.02 77.49 316.42 75.9 315.7 74.1C314.98 72.3 314.29 70.74 313.63 69.42C313.03 68.76 312.43 67.65 311.83 66.09C311.23 64.53 310.63 62.82 310.03 60.96C309.43 59.1 308.83 57.39 308.23 55.83C307.63 54.27 307.03 53.16 306.43 52.5C306.01 51.48 305.56 50.46 305.08 49.44C304.66 48.36 304.24 47.31 303.82 46.29C303.58 45.45 303.34 44.64 303.1 43.86C302.8 43.02 302.68 42.18 302.74 41.34C302.8 40.68 302.92 40.05 303.1 39.45C303.22 38.79 303.4 38.16 303.64 37.56C303.88 36.96 304.15 36.36 304.45 35.76C304.75 35.1 305.14 34.56 305.62 34.14C305.74 34.02 305.86 33.93 305.98 33.87C306.16 33.81 306.31 33.75 306.43 33.69C307.45 33.15 308.5 32.88 309.58 32.88C310.72 32.82 311.86 32.79 313 32.79C314.2 32.79 315.46 32.79 316.78 32.79C318.16 32.73 319.45 32.85 320.65 33.15C321.19 33.27 321.7 33.45 322.18 33.69C322.72 33.93 323.23 34.2 323.71 34.5C324.61 34.92 325.48 35.43 326.32 36.03C327.22 36.63 327.97 37.35 328.57 38.19C329.29 39.15 329.86 40.23 330.28 41.43C330.7 42.63 331.15 43.8 331.63 44.94C331.93 45.54 332.29 46.08 332.71 46.56C332.77 46.62 332.83 46.74 332.89 46.92C333.01 47.04 333.1 47.1 333.16 47.1C333.28 47.1 333.43 47.04 333.61 46.92C333.85 46.74 334 46.65 334.06 46.65C334.12 46.53 334.21 46.47 334.33 46.47C334.45 46.41 334.54 46.35 334.6 46.29C334.72 46.17 334.81 46.02 334.87 45.84C334.99 45.6 335.08 45.45 335.14 45.39C335.32 45.03 335.47 44.67 335.59 44.31C335.77 43.95 335.92 43.59 336.04 43.23C336.52 42.33 337.09 41.16 337.75 39.72C338.47 38.28 339.25 36.93 340.09 35.67C340.93 34.41 341.8 33.57 342.7 33.15C343.54 32.91 344.44 32.79 345.4 32.79C346.36 32.79 347.29 32.79 348.19 32.79C349.45 32.79 350.77 32.79 352.15 32.79C353.53 32.73 354.82 32.85 356.02 33.15C356.62 33.27 357.16 33.45 357.64 33.69C358.18 33.93 358.69 34.2 359.17 34.5C359.65 34.74 360.13 35.01 360.61 35.31C361.15 35.61 361.63 35.94 362.05 36.3C362.17 36.36 362.29 36.45 362.41 36.57C362.59 36.69 362.71 36.81 362.77 36.93L363.04 37.65C363.1 37.83 363.16 38.01 363.22 38.19C363.28 38.37 363.31 38.55 363.31 38.73C363.37 38.97 363.37 39.21 363.31 39.45C363.25 39.63 363.19 39.81 363.13 39.99C363.01 40.95 362.77 41.94 362.41 42.96C362.05 43.92 361.72 44.91 361.42 45.93ZM350.62 37.2C349.48 37.2 348.22 37.2 346.84 37.2C345.52 37.2 344.32 37.44 343.24 37.92C342.34 38.4 341.53 39.18 340.81 40.26C340.15 41.34 339.58 42.48 339.1 43.68C338.62 44.88 338.17 45.93 337.75 46.83C337.33 48.09 336.88 49.35 336.4 50.61C335.98 51.87 335.44 53.1 334.78 54.3C334.72 54.48 334.63 54.69 334.51 54.93C334.45 55.17 334.36 55.35 334.24 55.47C334.18 55.53 334.03 55.59 333.79 55.65C333.55 55.71 333.37 55.8 333.25 55.92C333.01 56.16 332.77 56.28 332.53 56.28C332.47 56.22 332.35 56.1 332.17 55.92C332.05 55.74 331.93 55.62 331.81 55.56C331.39 55.2 331.06 54.78 330.82 54.3C330.64 53.76 330.46 53.22 330.28 52.68C329.86 51.48 329.44 50.31 329.02 49.17C328.66 47.97 328.24 46.8 327.76 45.66C327.52 45 327.28 44.34 327.04 43.68C326.8 42.96 326.53 42.27 326.23 41.61C325.99 41.07 325.66 40.53 325.24 39.99C324.88 39.39 324.46 38.88 323.98 38.46C323.56 38.16 323.08 37.95 322.54 37.83C322.06 37.65 321.58 37.53 321.1 37.47C319.96 37.23 318.79 37.14 317.59 37.2C316.45 37.2 315.28 37.2 314.08 37.2C313.42 37.2 312.73 37.2 312.01 37.2C311.35 37.2 310.69 37.26 310.03 37.38C309.85 37.38 309.64 37.38 309.4 37.38C309.22 37.38 309.04 37.44 308.86 37.56C308.74 37.62 308.59 37.71 308.41 37.83C308.29 37.89 308.17 37.98 308.05 38.1C307.93 38.16 307.78 38.22 307.6 38.28C307.42 38.34 307.27 38.43 307.15 38.55L306.88 39.27C306.82 39.39 306.73 39.57 306.61 39.81C306.49 39.99 306.4 40.17 306.34 40.35C306.28 40.53 306.28 40.74 306.34 40.98C306.4 41.16 306.43 41.34 306.43 41.52C306.49 42.12 306.58 42.69 306.7 43.23C306.88 43.77 307.09 44.31 307.33 44.85C307.63 45.51 307.9 46.17 308.14 46.83C308.44 47.49 308.74 48.15 309.04 48.81C309.64 49.47 310.24 50.64 310.84 52.32C311.5 53.94 312.13 55.74 312.73 57.72C313.39 59.7 314.02 61.53 314.62 63.21C315.28 64.83 315.91 65.97 316.51 66.63C317.23 67.95 317.95 69.6 318.67 71.58C319.45 73.56 320.14 75.24 320.74 76.62C321.04 77.58 321.28 78.54 321.46 79.5C321.7 80.46 321.76 81.45 321.64 82.47C321.52 83.25 321.31 84 321.01 84.72C320.71 85.5 320.41 86.28 320.11 87.06C319.69 88.02 319.27 88.95 318.85 89.85C318.49 90.81 318.13 91.8 317.77 92.82C317.53 93.3 317.29 93.81 317.05 94.35C316.87 94.89 316.72 95.43 316.6 95.97C316.54 96.21 316.48 96.51 316.42 96.87C316.36 97.29 316.36 97.62 316.42 97.86C316.48 98.22 316.63 98.55 316.87 98.85C316.93 98.97 316.96 99.09 316.96 99.21C317.02 99.39 317.08 99.54 317.14 99.66C317.26 99.72 317.41 99.78 317.59 99.84C317.77 99.96 317.89 100.05 317.95 100.11C318.79 100.65 319.69 100.95 320.65 101.01C321.43 101.07 322.18 101.1 322.9 101.1C323.68 101.1 324.46 101.1 325.24 101.1C326.62 101.1 328.12 101.07 329.74 101.01C331.36 100.95 332.77 100.47 333.97 99.57C334.81 98.91 335.47 98.07 335.95 97.05C336.43 96.03 336.88 95.07 337.3 94.17C337.96 92.79 338.59 91.29 339.19 89.67C339.85 88.11 340.48 86.67 341.08 85.35C341.56 84.87 342.13 83.85 342.79 82.29C343.51 80.73 344.29 78.87 345.13 76.71C346.03 74.49 346.93 72.18 347.83 69.78C348.73 67.32 349.6 65.01 350.44 62.85C351.34 60.63 352.15 58.74 352.87 57.18C353.59 55.56 354.16 54.54 354.58 54.12C355.18 52.74 355.81 51.27 356.47 49.71C357.13 48.09 357.76 46.62 358.36 45.3C358.6 44.7 358.81 44.13 358.99 43.59C359.23 42.99 359.41 42.39 359.53 41.79C359.59 41.67 359.65 41.52 359.71 41.34C359.77 41.1 359.77 40.92 359.71 40.8C359.71 40.56 359.68 40.35 359.62 40.17C359.56 39.93 359.5 39.69 359.44 39.45C359.44 39.21 359.41 39.06 359.35 39C359.29 38.88 359.14 38.76 358.9 38.64C358.78 38.52 358.63 38.37 358.45 38.19C358.27 37.95 358.09 37.8 357.91 37.74C357.13 37.44 356.29 37.29 355.39 37.29C354.61 37.23 353.83 37.2 353.05 37.2C352.27 37.2 351.46 37.2 350.62 37.2Z" fill="#BE65A7"/>
</svg>
